<svg width="95" height="29" viewBox="0 0 95 29" fill="none" xmlns="http://www.w3.org/2000/svg">
<path d="M17.43 4.325H10.695V23H7.2V4.325H0.45V1.4H17.43V4.325ZM19.717 10.535C20.197 9.565 20.777 8.805 21.457 8.255C22.137 7.695 22.952 7.415 23.902 7.415C24.232 7.415 24.542 7.455 24.832 7.535C25.122 7.605 25.382 7.715 25.612 7.865L25.387 10.295C25.347 10.465 25.282 10.585 25.192 10.655C25.112 10.715 25.002 10.745 24.862 10.745C24.712 10.745 24.497 10.72 24.217 10.67C23.937 10.61 23.642 10.58 23.332 10.58C22.882 10.58 22.482 10.645 22.132 10.775C21.792 10.905 21.482 11.095 21.202 11.345C20.932 11.595 20.692 11.9 20.482 12.26C20.272 12.62 20.077 13.03 19.897 13.49V23H16.672V7.7H18.547C18.887 7.7 19.122 7.765 19.252 7.895C19.382 8.015 19.472 8.23 19.522 8.54L19.717 10.535ZM35.6869 16.31C34.5369 16.35 33.5669 16.445 32.7769 16.595C31.9869 16.735 31.3469 16.92 30.8569 17.15C30.3669 17.37 30.0119 17.635 29.7919 17.945C29.5819 18.255 29.4769 18.595 29.4769 18.965C29.4769 19.325 29.5319 19.635 29.6419 19.895C29.7619 20.145 29.9219 20.355 30.1219 20.525C30.3319 20.685 30.5719 20.805 30.8419 20.885C31.1219 20.955 31.4269 20.99 31.7569 20.99C32.5969 20.99 33.3169 20.835 33.9169 20.525C34.5269 20.205 35.1169 19.745 35.6869 19.145V16.31ZM27.1369 9.83C28.8669 8.22 30.9269 7.415 33.3169 7.415C34.1969 7.415 34.9769 7.56 35.6569 7.85C36.3469 8.13 36.9219 8.53 37.3819 9.05C37.8519 9.57 38.2069 10.19 38.4469 10.91C38.6969 11.62 38.8219 12.41 38.8219 13.28V23H37.3819C37.0719 23 36.8369 22.955 36.6769 22.865C36.5169 22.765 36.3819 22.57 36.2719 22.28L35.9569 21.035C35.5669 21.385 35.1819 21.7 34.8019 21.98C34.4219 22.25 34.0269 22.48 33.6169 22.67C33.2169 22.86 32.7819 23 32.3119 23.09C31.8519 23.19 31.3419 23.24 30.7819 23.24C30.1619 23.24 29.5819 23.155 29.0419 22.985C28.5119 22.815 28.0519 22.56 27.6619 22.22C27.2719 21.87 26.9619 21.44 26.7319 20.93C26.5119 20.42 26.4019 19.82 26.4019 19.13C26.4019 18.54 26.5569 17.965 26.8669 17.405C27.1869 16.845 27.7069 16.345 28.4269 15.905C29.1569 15.455 30.1119 15.085 31.2919 14.795C32.4819 14.505 33.9469 14.34 35.6869 14.3V13.28C35.6869 12.18 35.4519 11.36 34.9819 10.82C34.5119 10.28 33.8219 10.01 32.9119 10.01C32.2919 10.01 31.7719 10.09 31.3519 10.25C30.9319 10.4 30.5669 10.565 30.2569 10.745C29.9469 10.925 29.6719 11.095 29.4319 11.255C29.1919 11.405 28.9369 11.48 28.6669 11.48C28.4469 11.48 28.2569 11.425 28.0969 11.315C27.9469 11.195 27.8219 11.05 27.7219 10.88L27.1369 9.83ZM55.7182 7.7L49.5682 23H46.6582L40.5082 7.7H43.1632C43.4132 7.7 43.6182 7.765 43.7782 7.895C43.9482 8.015 44.0582 8.16 44.1082 8.33L47.4982 17.24C47.6382 17.66 47.7632 18.075 47.8732 18.485C47.9832 18.895 48.0782 19.31 48.1582 19.73C48.2382 19.31 48.3332 18.9 48.4432 18.5C48.5632 18.09 48.6932 17.67 48.8332 17.24L52.2832 8.33C52.3432 8.15 52.4532 8 52.6132 7.88C52.7732 7.76 52.9682 7.7 53.1982 7.7H55.7182ZM67.5176 13.625C67.5176 13.085 67.4376 12.585 67.2776 12.125C67.1276 11.655 66.9026 11.25 66.6026 10.91C66.3026 10.56 65.9276 10.29 65.4776 10.1C65.0376 9.9 64.5276 9.8 63.9476 9.8C62.7776 9.8 61.8576 10.135 61.1876 10.805C60.5176 11.475 60.0926 12.415 59.9126 13.625H67.5176ZM59.8226 15.605C59.8626 16.475 59.9976 17.23 60.2276 17.87C60.4576 18.5 60.7626 19.025 61.1426 19.445C61.5326 19.865 61.9926 20.18 62.5226 20.39C63.0626 20.59 63.6626 20.69 64.3226 20.69C64.9526 20.69 65.4976 20.62 65.9576 20.48C66.4176 20.33 66.8176 20.17 67.1576 20C67.4976 19.82 67.7876 19.66 68.0276 19.52C68.2676 19.37 68.4876 19.295 68.6876 19.295C68.9476 19.295 69.1476 19.395 69.2876 19.595L70.2026 20.78C69.8226 21.23 69.3926 21.61 68.9126 21.92C68.4326 22.23 67.9226 22.485 67.3826 22.685C66.8426 22.875 66.2876 23.01 65.7176 23.09C65.1476 23.18 64.5926 23.225 64.0526 23.225C62.9926 23.225 62.0076 23.05 61.0976 22.7C60.1976 22.34 59.4126 21.815 58.7426 21.125C58.0826 20.435 57.5626 19.58 57.1826 18.56C56.8126 17.54 56.6276 16.365 56.6276 15.035C56.6276 13.975 56.7926 12.985 57.1226 12.065C57.4626 11.145 57.9426 10.345 58.5626 9.665C59.1926 8.985 59.9526 8.45 60.8426 8.06C61.7426 7.66 62.7576 7.46 63.8876 7.46C64.8276 7.46 65.6976 7.615 66.4976 7.925C67.2976 8.225 67.9876 8.67 68.5676 9.26C69.1476 9.85 69.5976 10.575 69.9176 11.435C70.2476 12.285 70.4126 13.255 70.4126 14.345C70.4126 14.845 70.3576 15.18 70.2476 15.35C70.1376 15.52 69.9376 15.605 69.6476 15.605H59.8226ZM76.7051 0.8V23H73.4801V0.8H76.7051ZM94.2607 7.7L85.8307 27.35C85.7207 27.58 85.5857 27.76 85.4257 27.89C85.2757 28.02 85.0407 28.085 84.7207 28.085H82.3357L85.1557 21.965L78.9157 7.7H81.7207C81.9907 7.7 82.1957 7.765 82.3357 7.895C82.4857 8.015 82.5957 8.16 82.6657 8.33L86.3107 17.015C86.4007 17.265 86.4807 17.515 86.5507 17.765C86.6307 18.005 86.7057 18.255 86.7757 18.515C86.8557 18.255 86.9357 18 87.0157 17.75C87.0957 17.5 87.1857 17.25 87.2857 17L90.7807 8.33C90.8507 8.15 90.9657 8 91.1257 7.88C91.2957 7.76 91.4807 7.7 91.6807 7.7H94.2607Z" fill="#34606E"/>
</svg>
